<?xml version="1.0" encoding="UTF-8"?>
<svg id="CAPA_1_FRONTAL" xmlns="http://www.w3.org/2000/svg" viewBox="0 0 11529.24 607.47">
  <defs>
    <style>
      .cls-1 {
        fill: #0b1941;
      }

      .cls-2 {
        fill: #004040;
      }

      .cls-3 {
        fill: #ebab6c;
      }
    </style>
  </defs>
  <path class="cls-2" d="M7693.36,602.19h3835.88v-225.52l-299.53-48.26c-19.45-3.13-39.2-4.08-58.86-2.86-492.35,30.52-444.63-205.79-998.5,25.66-28.32,11.83-59.61,14.63-89.58,8.03-397.98-87.62-217.47.26-627.78,10.11-9.28.22-18.57-.7-27.63-2.76-436.49-99.14-359.87,30.6-620.19,21.7-22.23-.76-45.18-4.05-64.21-15.58-888.47-567.96-1730.04-81.05-2052.32,234.63h997.89c-.06-2.55,1.55-5.14,4.82-5.14Z"/>
  <path class="cls-2" d="M2447,604.77h1397.37v-279.63C2463.13,610.05,740.36,124.46,0,325.14v282.2h2442.72c.72-1.47,2.14-2.57,4.28-2.57Z"/>
  <g>
    <polygon class="cls-1" points="5038.91 607.34 5038.91 401.9 4958.79 308.32 4281.73 308.32 4204.26 398.8 4204.26 607.34 5038.91 607.34"/>
    <g>
      <polygon class="cls-1" points="4341.66 384.26 4425.47 384.26 4425.47 308.32 4383.57 274.91 4341.66 308.32 4341.66 384.26"/>
      <path class="cls-1" d="M4428.07,386.86h-89.01v-79.79l44.5-35.49,44.5,35.49v79.79h.01ZM4344.26,381.66h78.62v-72.09l-39.31-31.34-39.31,31.34v72.09Z"/>
    </g>
    <path class="cls-1" d="M4383.57,313.38h0c9.03,0,16.36,7.33,16.36,16.36v37.12h-32.73v-37.12c0-9.03,7.33-16.36,16.36-16.36h.01Z"/>
    <g>
      <polygon class="cls-1" points="4473.75 384.26 4557.56 384.26 4557.56 308.32 4515.65 274.91 4473.75 308.32 4473.75 384.26"/>
      <path class="cls-1" d="M4560.16,386.86h-89.01v-79.79l44.5-35.49,44.5,35.49v79.79h.01ZM4476.34,381.66h78.62v-72.09l-39.31-31.34-39.31,31.34v72.09Z"/>
    </g>
    <path class="cls-1" d="M4515.65,313.38h0c9.03,0,16.36,7.33,16.36,16.36v37.12h-32.73v-37.12c0-9.03,7.33-16.36,16.36-16.36h.01Z"/>
    <g>
      <polygon class="cls-1" points="4700.65 384.26 4784.47 384.26 4784.47 308.32 4742.56 274.91 4700.65 308.32 4700.65 384.26"/>
      <path class="cls-1" d="M4787.07,386.86h-89.01v-79.79l44.51-35.49,44.5,35.49v79.79ZM4703.25,381.66h78.62v-72.09l-39.31-31.34-39.31,31.34v72.09Z"/>
    </g>
    <path class="cls-3" d="M4742.56,313.38h0c9.03,0,16.36,7.33,16.36,16.36v37.12h-32.73v-37.12c0-9.03,7.33-16.36,16.36-16.36h.01Z"/>
    <g>
      <polygon class="cls-1" points="4832.74 384.26 4916.55 384.26 4916.55 308.32 4874.65 274.91 4832.74 308.32 4832.74 384.26"/>
      <path class="cls-1" d="M4919.15,386.86h-89.01v-79.79l44.51-35.49,44.5,35.49v79.79ZM4835.34,381.66h78.62v-72.09l-39.31-31.34-39.31,31.34v72.09Z"/>
    </g>
    <path class="cls-3" d="M4874.65,313.38h0c9.03,0,16.36,7.33,16.36,16.36v37.12h-32.73v-37.12c0-9.03,7.33-16.36,16.36-16.36h.01Z"/>
    <polygon class="cls-1" points="5873.56 607.34 5873.56 401.9 5793.44 308.32 5116.38 308.32 5038.91 398.8 5038.91 607.34 5873.56 607.34"/>
    <g>
      <polygon class="cls-1" points="5176.31 384.26 5260.13 384.26 5260.13 308.32 5218.22 274.9 5176.31 308.32 5176.31 384.26"/>
      <path class="cls-1" d="M5262.72,386.86h-89.01v-79.79l44.5-35.49,44.5,35.49v79.79h.01ZM5178.91,381.66h78.62v-72.09l-39.31-31.34-39.31,31.34v72.09h0Z"/>
    </g>
    <path class="cls-1" d="M5218.22,313.38h0c9.03,0,16.36,7.33,16.36,16.36v37.12h-32.73v-37.12c0-9.03,7.33-16.36,16.36-16.36h.01Z"/>
    <g>
      <polygon class="cls-1" points="5308.4 384.26 5392.21 384.26 5392.21 308.32 5350.3 274.9 5308.4 308.32 5308.4 384.26"/>
      <path class="cls-1" d="M5394.81,386.86h-89.01v-79.79l44.5-35.49,44.5,35.49v79.79h.01ZM5311,381.66h78.62v-72.09l-39.31-31.34-39.31,31.34v72.09h0Z"/>
    </g>
    <path class="cls-1" d="M5350.3,313.38h0c9.03,0,16.36,7.33,16.36,16.36v37.12h-32.73v-37.12c0-9.03,7.33-16.36,16.36-16.36h.01Z"/>
    <g>
      <polygon class="cls-1" points="5535.31 384.26 5619.12 384.26 5619.12 308.32 5577.21 274.9 5535.31 308.32 5535.31 384.26"/>
      <path class="cls-1" d="M5621.72,386.86h-89.01v-79.79l44.51-35.49,44.5,35.49v79.79ZM5537.9,381.66h78.62v-72.09l-39.31-31.34-39.31,31.34v72.09h0Z"/>
    </g>
    <path class="cls-3" d="M5577.21,313.38h0c9.03,0,16.36,7.33,16.36,16.36v37.12h-32.73v-37.12c0-9.03,7.33-16.36,16.36-16.36h.01Z"/>
    <g>
      <polygon class="cls-1" points="5667.39 384.26 5751.2 384.26 5751.2 308.32 5709.3 274.9 5667.39 308.32 5667.39 384.26"/>
      <path class="cls-1" d="M5753.8,386.86h-89.01v-79.79l44.51-35.49,44.5,35.49v79.79ZM5669.99,381.66h78.62v-72.09l-39.31-31.34-39.31,31.34v72.09h0Z"/>
    </g>
    <path class="cls-3" d="M5709.3,313.38h0c9.03,0,16.36,7.33,16.36,16.36v37.12h-32.73v-37.12c0-9.03,7.33-16.36,16.36-16.36h.01Z"/>
    <rect class="cls-1" x="3837.1" y="393.61" width="367.16" height="213.73"/>
    <g>
      <polygon class="cls-1" points="7064.44 607.34 7064.44 401.9 6984.32 308.32 6307.26 308.32 6229.79 398.8 6229.79 607.34 7064.44 607.34"/>
      <g>
        <polygon class="cls-1" points="6367.19 384.26 6451.01 384.26 6451.01 308.32 6409.1 274.91 6367.19 308.32 6367.19 384.26"/>
        <path class="cls-1" d="M6453.6,386.86h-89.01v-79.79l44.5-35.49,44.5,35.49v79.79h.01ZM6369.79,381.66h78.62v-72.09l-39.31-31.34-39.31,31.34v72.09Z"/>
      </g>
      <path class="cls-1" d="M6409.1,313.38h0c9.03,0,16.36,7.33,16.36,16.36v37.12h-32.73v-37.12c0-9.03,7.33-16.36,16.36-16.36h0Z"/>
      <g>
        <polygon class="cls-1" points="6499.28 384.26 6583.09 384.26 6583.09 308.32 6541.18 274.91 6499.28 308.32 6499.28 384.26"/>
        <path class="cls-1" d="M6585.69,386.86h-89.01v-79.79l44.5-35.49,44.5,35.49v79.79h.01ZM6501.88,381.66h78.62v-72.09l-39.31-31.34-39.31,31.34v72.09Z"/>
      </g>
      <path class="cls-1" d="M6541.18,313.38h0c9.03,0,16.36,7.33,16.36,16.36v37.12h-32.73v-37.12c0-9.03,7.33-16.36,16.36-16.36h0Z"/>
      <g>
        <polygon class="cls-1" points="6726.19 384.26 6810 384.26 6810 308.32 6768.09 274.91 6726.19 308.32 6726.19 384.26"/>
        <path class="cls-1" d="M6812.6,386.86h-89.01v-79.79l44.51-35.49,44.5,35.49v79.79ZM6728.78,381.66h78.62v-72.09l-39.31-31.34-39.31,31.34v72.09Z"/>
      </g>
      <path class="cls-3" d="M6768.09,313.38h0c9.03,0,16.36,7.33,16.36,16.36v37.12h-32.73v-37.12c0-9.03,7.33-16.36,16.36-16.36h0Z"/>
      <g>
        <polygon class="cls-1" points="6858.27 384.26 6942.08 384.26 6942.08 308.32 6900.18 274.91 6858.27 308.32 6858.27 384.26"/>
        <path class="cls-1" d="M6944.68,386.86h-89.01v-79.79l44.51-35.49,44.5,35.49v79.79ZM6860.87,381.66h78.62v-72.09l-39.31-31.34-39.31,31.34v72.09Z"/>
      </g>
      <path class="cls-3" d="M6900.18,313.38h0c9.03,0,16.36,7.33,16.36,16.36v37.12h-32.73v-37.12c0-9.03,7.33-16.36,16.36-16.36h0Z"/>
      <polygon class="cls-1" points="6229.79 393.61 6046.21 149.36 6046.21 149.36 5862.63 393.61 6229.79 393.61"/>
      <rect class="cls-1" x="5862.63" y="393.61" width="367.16" height="213.73"/>
    </g>
    <g>
      <polygon class="cls-1" points="3912.73 470.05 3996.54 470.05 3996.54 394.11 3954.64 360.7 3912.73 394.11 3912.73 470.05"/>
      <path class="cls-1" d="M3999.14,472.65h-89.01v-79.79l44.51-35.49,44.5,35.49v79.79ZM3915.33,467.45h78.62v-72.09l-39.31-31.34-39.31,31.34v72.09h0Z"/>
    </g>
    <path class="cls-3" d="M3954.64,399.18h0c9.03,0,16.36,7.33,16.36,16.36v37.12h-32.73v-37.12c0-9.03,7.33-16.36,16.36-16.36h0Z"/>
    <g>
      <polygon class="cls-1" points="4044.81 470.05 4128.63 470.05 4128.63 394.11 4086.72 360.7 4044.81 394.11 4044.81 470.05"/>
      <path class="cls-1" d="M4131.22,472.65h-89.01v-79.79l44.51-35.49,44.5,35.49v79.79h0ZM4047.41,467.45h78.62v-72.09l-39.31-31.34-39.31,31.34v72.09Z"/>
    </g>
    <path class="cls-3" d="M4086.72,399.18h0c9.03,0,16.36,7.33,16.36,16.36v37.12h-32.73v-37.12c0-9.03,7.33-16.36,16.36-16.36h0Z"/>
  </g>
  <path class="cls-2" d="M4019.72,607.34c65.67-406.67-119-627.94-243.21-368.14-52.23-309.07-279.71-342.83-285.76,42.18-65.86-62.1-122.27-48.72-155.56,149.22l-38.69,176.74h723.22Z"/>
  <path class="cls-2" d="M7478.66,607.34l170.07-115.1-114.68-169.45c-104.25-171.52-161.6-163.05-199.77-80.97-148.25-355.38-347.04-239.75-281.06,66.68-184.05-169.87-275.78,15.22-157.31,298.84h582.75Z"/>
</svg>